<svg width="101" height="100" viewBox="0 0 101 100" fill="none" xmlns="http://www.w3.org/2000/svg">
<path d="M98.0367 64.3836C99.3329 59.8141 100.083 54.9609 100.083 50C100.083 43.0822 98.7871 36.5949 96.1851 30.5284C90.9908 18.3953 81.762 9.26614 69.6778 3.91389C63.6357 1.30137 57.1745 0 50.2845 0C43.4628 0 37.0309 1.30137 30.9887 3.91389C18.9045 9.26614 9.67566 18.3953 4.48139 30.5284C1.87938 36.5949 0.583252 43.0822 0.583252 50C0.583252 54.8239 1.23619 59.5597 2.53232 63.9922C1.36288 64.2564 0.583252 64.3836 0.583252 64.3836L6.23555 78.6693C6.23555 78.6693 7.30754 78.6986 9.25661 78.18C11.4688 81.4384 14.0611 84.4129 17.0529 87.0841C22.9001 92.5636 29.946 96.3503 38.0054 98.4344C41.9717 99.4814 46.0648 100 50.2845 100C54.5725 100 58.7337 99.4814 62.7586 98.4344C70.6815 96.3503 77.7372 92.4364 83.7111 87.0841C86.7029 84.4129 89.2952 81.409 91.5074 78.0822C93.0666 78.6008 93.9437 78.6693 93.9437 78.6693L100.083 64.5793C100.083 64.5793 99.4693 64.7749 98.0367 64.3836ZM5.74829 50C5.74829 43.8063 6.91773 37.9941 9.25661 32.5832C13.9344 21.7515 22.1205 13.5029 33.0353 8.80626C38.4342 6.45793 44.1839 5.28376 50.2845 5.28376C56.4533 5.28376 62.2421 6.45793 67.6312 8.80626C78.546 13.5029 86.7321 21.7515 91.4099 32.5832C93.7488 37.9941 94.9182 43.8063 94.9182 50C94.9182 54.1781 94.3335 58.317 93.1641 62.2309C90.6985 60.7926 87.9016 58.0528 84.7831 54.0117C81.6646 49.9706 79.16 45.9198 77.2791 41.8787C76.3046 39.8532 75.0377 37.6419 73.4785 35.225C70.4866 30.4012 66.072 25.9296 60.2248 23.1898C57.3012 21.7515 53.9878 21.0372 50.2845 21.0372C46.6495 21.0372 43.2971 21.8493 40.2468 23.4834C34.1365 26.7417 29.6244 31.2818 26.8957 35.3229C25.4631 37.3483 24.5568 38.7182 24.167 39.4325C23.709 40.2153 23.0658 41.5166 22.2179 43.3464C20.3955 46.8689 18.1249 51.0763 15.786 54.9902C14.6166 56.8787 13.5153 58.317 12.4726 59.2955C11.04 60.7339 9.28585 61.7417 7.5999 62.5245C6.43046 58.4834 5.74829 54.3053 5.74829 50ZM50.2845 94.7162C46.5813 94.7162 43.0048 94.2955 39.5646 93.4442C32.548 91.6145 26.3402 88.3268 21.1459 83.7573C18.5439 81.4775 16.244 78.9335 14.2267 76.1252C19.421 73.3855 26.6033 67.544 33.62 55.2838C34.0098 54.6282 34.692 53.3268 35.6665 51.3699C37.6156 47.456 40.471 42.9843 43.8526 39.726C45.5385 38.092 47.2927 37.2798 49.1151 37.2798C50.9959 37.2798 52.9158 38.1605 54.8648 39.9217C58.763 43.317 62.1739 47.9159 64.5127 51.9569C65.6822 53.9139 66.4326 55.1859 66.7542 55.773C73.2543 67.2505 81.0798 73.1605 86.5372 76.0274C84.5199 78.8356 82.22 81.3796 79.618 83.6595C74.2873 88.3562 68.0893 91.6536 61.1993 93.3464C57.691 94.2564 54.056 94.7162 50.2845 94.7162Z" fill="#7826E7"/>
</svg>
