<svg width="101" height="100" viewBox="0 0 101 100" fill="none" xmlns="http://www.w3.org/2000/svg">
<path d="M50.6666 0C43.7623 0 37.2877 1.29883 31.233 3.90625C18.9967 9.11133 9.77795 18.3301 4.57288 30.5664C1.96545 36.6211 0.666626 43.0957 0.666626 50C0.666626 56.9043 1.96545 63.3789 4.57288 69.4336C9.77795 81.6699 18.9967 90.8887 31.233 96.0938C37.2877 98.7012 43.7623 100 50.6666 100C57.5709 100 64.0455 98.7012 70.1002 96.0938C82.3365 90.8887 91.5553 81.6699 96.7604 69.4336C99.3678 63.3789 100.667 56.9043 100.667 50C100.667 43.0957 99.3678 36.6211 96.7604 30.5664C91.5553 18.3301 82.3365 9.11133 70.1002 3.90625C64.0455 1.29883 57.5709 0 50.6666 0ZM11.8971 72.3633C11.8971 72.2363 11.8971 72.2656 11.8971 72.2656C11.7701 72.1387 11.7018 72.0996 11.7018 71.9727C11.4381 71.582 11.3112 71.123 11.3112 70.9961C11.0475 69.3066 12.6783 69.043 12.6783 69.043C12.6783 69.043 15.1881 69.043 16.0963 69.043C17.1412 69.043 16.7799 69.7266 16.7799 69.7266C16.7799 69.7266 16.8287 70.8496 16.9264 73.0957C17.024 75.3418 17.1412 76.7871 17.2682 77.4414C17.5319 78.6133 17.2682 78.9062 17.2682 78.9062L16.0963 78.125C16.0963 78.125 13.4303 74.7754 11.9948 72.5586C11.9948 72.4219 11.8971 72.3633 11.8971 72.3633ZM95.1002 55.3711C94.8365 56.9336 94.3873 59.1504 94.1237 60.4492C94.1237 60.8398 93.9576 61.2012 93.8307 61.7188C93.567 62.1094 92.8541 63.0859 92.0729 63.0859C91.6139 63.1543 90.5299 63.1641 88.8014 63.1348C87.0729 63.1055 86.2135 63.0859 86.2135 63.0859C86.2135 63.0859 85.5299 62.1777 85.5299 61.5234C85.5299 61.5234 85.5494 60.3027 85.5787 57.8613C85.608 55.4199 85.5983 54.1016 85.5299 53.9062C85.403 53.5156 86.6041 52.6367 86.6041 52.6367H94.6119C94.6119 52.6367 95.0709 53.4863 95.1979 54.0039V54.1016C95.1979 54.4922 95.1002 54.9805 95.1002 55.3711ZM84.358 21.7773C84.2311 21.123 84.2311 20.7715 84.358 20.5078C86.5748 23.1152 88.6256 26.0742 90.3151 29.1992C89.9244 29.9805 88.9479 30.1758 88.9479 30.1758C88.9479 30.1758 86.4381 30.1758 85.5299 30.1758C84.485 30.1758 84.944 29.5898 84.944 29.5898C84.944 29.5898 84.8756 28.4473 84.7487 26.1719C84.6217 23.8867 84.4948 22.4219 84.358 21.7773ZM22.9322 85.1562C22.9322 84.7656 22.9322 84.375 22.9322 84.375C22.9322 84.375 22.2487 80.5957 22.2487 78.9062C22.2487 77.3438 23.9088 76.6602 23.9088 76.6602C23.9088 76.6602 24.9147 76.6895 26.9362 76.7578C31.1061 77.0215 37.1608 77.1777 43.5377 77.4414C46.7311 77.5098 49.4655 77.5391 51.7408 77.5391C54.0162 77.5391 56.5944 77.5098 59.4557 77.4414C65.3151 77.1777 70.9108 76.9238 74.6901 76.6602C76.5748 76.5918 77.649 76.6309 77.9127 76.7578C78.9576 77.0215 79.0846 78.2227 79.0846 78.2227L77.9127 85.4492C77.9127 85.4492 77.942 85.4199 77.8151 85.5469C70.2662 91.2793 60.8229 94.7266 50.6666 94.7266C40.2565 94.7266 30.6178 91.1426 22.9322 85.1562ZM17.2682 20.3125C17.2682 20.3125 17.3951 20.5762 17.2682 21.875C17.1412 22.4609 17.0045 23.8965 16.8776 26.1719C16.7506 28.4473 16.6823 29.5898 16.6823 29.5898C16.6823 29.5898 17.1412 30.1758 16.0963 30.1758C15.1881 30.1758 12.5807 30.1758 12.5807 30.1758C12.5807 30.1758 11.3112 29.9805 11.3112 28.8086C12.8737 25.8105 14.8561 22.9785 17.0729 20.5078L17.2682 20.3125ZM16.194 61.5234C16.194 62.1777 15.4127 63.0859 15.4127 63.0859C15.4127 63.0859 14.5631 63.1055 12.8737 63.1348C11.1842 63.1641 10.11 63.1543 9.651 63.0859C8.60608 62.959 7.79553 61.5234 7.79553 61.5234C7.79553 61.5234 7.57092 60.3516 7.11194 58.0078C6.65295 55.6641 6.45764 54.3262 6.526 54.0039C6.65295 53.4863 7.11194 52.6367 7.11194 52.6367H15.0221C15.0221 52.6367 16.3209 53.5156 16.194 53.9062C16.1256 54.1016 16.1158 55.4199 16.1451 57.8613C16.1744 60.3027 16.194 61.5234 16.194 61.5234ZM15.0221 46.582H7.11194C7.11194 46.582 6.65295 45.8691 6.526 45.2148C6.45764 44.8926 6.65295 43.5742 7.11194 41.2598C7.57092 38.9453 7.79553 37.793 7.79553 37.793C7.79553 37.793 8.60608 36.2598 9.651 36.1328C10.11 36.0645 11.1842 36.0547 12.8737 36.084C14.5631 36.1133 15.4127 36.1328 15.4127 36.1328C15.4127 36.1328 16.194 37.1387 16.194 37.793C16.194 37.793 16.1744 38.9941 16.1451 41.4062C16.1158 43.8184 16.1256 45.1172 16.194 45.3125C16.3307 45.7031 15.0221 46.582 15.0221 46.582ZM80.9401 68.2617C80.9401 69.5605 79.7975 70.7031 78.4987 70.7031H23.6158C22.317 70.7031 21.1744 69.5605 21.1744 68.2617V31.7383C21.1744 30.4395 22.317 29.2969 23.6158 29.2969H78.4987C79.7975 29.2969 80.9401 30.4395 80.9401 31.7383V68.2617ZM78.4987 15.0391C78.4987 15.0391 79.0846 18.8184 79.0846 20.5078C79.0846 22.0703 77.4244 22.7539 77.4244 22.7539C77.4244 22.7539 76.4186 22.7246 74.3971 22.6562C70.2272 22.3926 64.1725 22.2363 57.7955 21.9727C54.6022 21.9043 51.8678 21.875 49.5924 21.875C47.3756 21.875 44.8073 21.9434 41.8776 22.0703C36.0182 22.334 30.5494 22.627 26.6432 22.7539C24.7584 22.8223 23.6842 22.7832 23.4205 22.6562C22.3756 22.3926 22.2487 21.1914 22.2487 21.1914L23.3229 14.5508C30.8717 8.81836 40.3834 5.27344 50.6666 5.27344C61.2135 5.27344 70.8131 8.81836 78.4987 14.9414V15.0391ZM95.1979 45.4102C94.9342 45.9277 94.6119 46.582 94.6119 46.582H86.6041C86.6041 46.582 85.403 45.7031 85.5299 45.3125C85.5983 45.1172 85.608 43.8184 85.5787 41.4062C85.5494 38.9941 85.5299 37.793 85.5299 37.793C85.5299 37.1387 86.3112 36.1328 86.3112 36.1328C86.3112 36.1328 87.1608 36.1133 88.8502 36.084C90.5397 36.0547 91.6139 36.0645 92.0729 36.1328C92.7272 36.1328 93.1471 36.7188 93.5377 37.1094C94.319 39.8438 94.8073 42.5391 95.1979 45.4102ZM84.4557 78.9062C84.4557 78.9062 84.192 78.6426 84.4557 77.3438C84.5826 76.7578 84.6998 75.3223 84.7975 73.0469C84.8951 70.7715 84.944 69.6289 84.944 69.6289C84.944 69.6289 84.485 69.043 85.5299 69.043C86.5748 69.043 89.0455 69.043 89.0455 69.043C89.0455 69.043 90.4127 69.3066 90.4127 70.6055C88.9772 73.3398 87.2877 75.8789 85.3346 78.2227L84.4557 78.9062Z" fill="#7826E7"/>
</svg>
