<svg width="94" height="100" viewBox="0 0 94 100" fill="none" xmlns="http://www.w3.org/2000/svg">
<path d="M93.75 49.7102C93.75 43.7235 92.6809 38.02 90.5426 32.6192C86.2661 21.9447 78.685 13.4481 68.5769 8.10598C63.5229 5.4398 58.08 3.77954 52.2484 3.1252C51.0821 1.17195 50.2074 0 50.2074 0C50.2074 0 49.3618 1.00592 48.0691 2.83221C47.6803 2.83221 47.2624 2.83221 47 2.83221C40.5172 2.83221 34.4621 4.03346 28.8248 6.44572C17.4241 11.3972 8.87105 20.1185 3.94335 31.4473C1.48436 37.1801 0.25 43.2645 0.25 49.7102C0.25 54.857 1.02755 59.7694 2.58264 64.4572C5.69283 73.8328 11.3592 81.5481 19.0083 87.4079C22.896 90.2694 27.1045 92.5156 31.6434 94.1466C32.421 96.0998 33.9761 97.7601 36.3087 98.932C40.0701 100.758 43.2386 100.006 47.3888 98.4437C48.6814 98.0531 49.7894 97.3694 50.6933 96.5881C56.7193 96.0705 62.3565 94.5079 67.605 91.9003C77.9755 86.6949 85.9454 78.1299 90.3482 67.1917C92.6226 61.7226 93.75 55.8922 93.75 49.7102ZM44.0842 32.3263C43.9578 31.8086 43.8898 31.545 43.8898 31.545C43.8898 31.545 43.919 30.4707 43.987 28.3221C44.1134 24.025 44.8326 18.2629 46.514 13.1844C47.3596 10.7136 48.5842 9.1119 50.2074 8.39897C50.2074 8.39897 51.053 8.72125 52.7344 9.37559C54.4158 10.0299 55.067 11.6902 54.6783 14.3564C54.1631 18.3898 50.3046 26.3298 44.0842 32.3263ZM5.01247 49.7102C5.01247 44.0457 6.05244 38.7427 8.12266 33.7912C12.2728 23.7613 19.6887 16.085 29.408 11.5242C34.2677 9.18027 39.4869 7.88136 45.0561 7.61767C43.6274 10.3522 42.3347 13.3798 41.9459 16.5049C41.2947 21.0658 41.2656 24.8551 41.8487 27.8826C42.4319 30.9102 42.7235 32.4239 42.7235 32.4239L42.9179 33.3029C41.7516 34.4748 40.4589 35.4515 39.0301 36.2328C29.962 42.0925 24.8691 50.9798 23.5764 60.3554C23.382 61.9863 23.7222 64.8674 24.5969 68.9985C25.4717 73.1296 27.6585 76.3427 31.1575 78.6182C38.1554 83.1791 43.7926 83.3744 49.6242 82.3294C50.2754 82.2025 51.3057 81.9095 52.3456 81.2551L53.6091 87.4079C53.6091 87.4079 53.58 89.2927 52.54 91.5097C50.7225 91.7734 48.9439 91.9003 47 91.9003C46.0961 91.9003 45.0853 91.8027 44.1814 91.8027C44.3077 91.412 44.3758 91.0507 44.3758 90.5331C44.6382 86.2359 41.9751 83.1791 39.1273 82.9154C34.0733 82.3978 31.5754 85.3863 31.0603 88.7751C27.2406 87.1442 23.7416 85.0347 20.5634 82.4271C14.2167 77.2217 9.5514 70.3462 6.95634 62.4063C5.66367 58.3631 5.01247 54.1343 5.01247 49.7102ZM44.2786 75.0047C44.2786 75.0047 43.5496 74.1453 42.0917 72.4167C40.6338 70.6881 40.0701 68.979 40.3909 67.2894C41.042 64.5549 44.3758 61.3027 48.2635 60.6484L52.0541 79.6925C49.9838 80.7375 47.486 81.4212 44.3758 81.1575C34.1413 80.5031 29.3108 73.6668 28.922 66.5081C28.6596 61.5566 30.6715 54.564 38.447 48.4406C40.6533 46.6143 42.9179 45.0517 44.8617 43.3621L47.0972 54.691C40.7505 56.2536 36.7947 60.5507 36.7947 64.8478C36.6683 69.5356 37.8833 72.3971 40.4394 73.4421C43.0053 74.4774 44.2786 75.0047 44.2786 75.0047ZM50.3046 60.453C50.567 60.453 50.7614 60.453 50.8877 60.453C53.4148 60.7167 55.4364 61.9473 56.9623 64.1642C58.4882 66.3811 59.12 68.3344 58.8576 70.024C58.5952 71.9772 57.1373 75.8153 53.9007 78.4229C52.9968 73.3445 51.7333 66.9574 50.3046 60.453ZM37.5722 97.0764C37.5722 97.0764 38.5442 96.7542 39.7105 96.0998C42.1695 96.4905 44.541 96.6858 47 96.6858C47 96.6858 47.068 96.6858 47.1944 96.6858C44.9298 97.5941 42.7526 97.887 40.6824 97.5648C38.6122 97.2327 37.5722 97.0764 37.5722 97.0764ZM54.3867 91.2167C54.7755 90.1717 54.999 89.0681 55.2614 87.8962C55.3878 86.9879 54.9407 84.185 54.2895 80.2785C57.3997 78.589 60.7723 76.0497 62.065 73.8328C63.7464 70.8345 64.3296 68.2367 63.8144 66.0198C63.2993 63.8029 62.8425 62.211 62.4537 61.2343C61.9969 60.2577 61.0444 58.8221 59.5865 56.9372C58.1286 55.0523 55.553 54.105 51.8597 54.105C50.9558 54.105 49.9838 54.1343 48.9439 54.398C48.04 49.9739 47.0972 45.8037 46.3196 42.2878C47.3596 41.4382 48.6523 40.3346 50.2074 38.9673C53.1912 36.1058 55.9418 32.004 57.4969 26.2712C58.2064 23.4097 58.2744 20.0892 57.6913 16.3096C57.5649 14.0927 56.4569 11.1335 55.1642 8.39897C59.9559 9.30723 64.4268 11.0359 68.5769 13.5751C76.7412 18.5266 82.8643 25.9098 86.3633 35.1585C88.0447 39.7193 88.8903 44.5634 88.8903 49.7102C88.8903 54.9156 88.0156 59.8378 86.2661 64.4572C82.7671 73.8328 76.5176 81.1575 68.091 86.2359C63.8825 88.7068 59.3144 90.367 54.3867 91.2167Z" fill="#7826E7"/>
</svg>
